<svg width="147" height="34" viewBox="0 0 147 34" fill="none" xmlns="http://www.w3.org/2000/svg">
<path d="M48.2734 18.1084C48.2734 16.966 48.4978 15.9528 48.9466 15.0688C49.409 14.1848 50.0346 13.5048 50.8234 13.0288C51.6122 12.5528 52.4894 12.3148 53.455 12.3148C54.1894 12.3148 54.8898 12.478 55.5562 12.8044C56.2226 13.1172 56.753 13.5388 57.1474 14.0692V8.70401H60.0442V23.8H57.1474V22.1272C56.7938 22.6848 56.2974 23.1336 55.6582 23.4736C55.019 23.8136 54.2778 23.9836 53.4346 23.9836C52.4826 23.9836 51.6122 23.7388 50.8234 23.2492C50.0346 22.7596 49.409 22.0728 48.9466 21.1888C48.4978 20.2912 48.2734 19.2644 48.2734 18.1084ZM57.1678 18.1492C57.1678 17.4556 57.0318 16.864 56.7598 16.3744C56.4878 15.8712 56.1206 15.4904 55.6582 15.232C55.1958 14.96 54.6994 14.824 54.169 14.824C53.6386 14.824 53.149 14.9532 52.7002 15.2116C52.2514 15.47 51.8842 15.8508 51.5986 16.354C51.3266 16.8436 51.1906 17.4284 51.1906 18.1084C51.1906 18.7884 51.3266 19.3868 51.5986 19.9036C51.8842 20.4068 52.2514 20.7944 52.7002 21.0664C53.1626 21.3384 53.6522 21.4744 54.169 21.4744C54.6994 21.4744 55.1958 21.3452 55.6582 21.0868C56.1206 20.8148 56.4878 20.434 56.7598 19.9444C57.0318 19.4412 57.1678 18.8428 57.1678 18.1492Z" fill="#5429CC"/>
<path d="M66.1588 14.8444V20.3116C66.1588 20.6924 66.2472 20.9712 66.424 21.148C66.6144 21.3112 66.9272 21.3928 67.3624 21.3928H68.6884V23.8H66.8932C64.486 23.8 63.2824 22.6304 63.2824 20.2912V14.8444H61.936V12.4984H63.2824V9.70361H66.1588V12.4984H68.6884V14.8444H66.1588Z" fill="#5429CC"/>
<path d="M89.6387 12.3352C91.0259 12.3352 92.1411 12.7636 92.9843 13.6204C93.8411 14.4636 94.2695 15.6468 94.2695 17.17V23.8H91.4135V17.5576C91.4135 16.6736 91.1891 16.0004 90.7403 15.538C90.2915 15.062 89.6795 14.824 88.9043 14.824C88.1291 14.824 87.5103 15.062 87.0479 15.538C86.5991 16.0004 86.3747 16.6736 86.3747 17.5576V23.8H83.5187V17.5576C83.5187 16.6736 83.2943 16.0004 82.8455 15.538C82.3967 15.062 81.7847 14.824 81.0095 14.824C80.2207 14.824 79.5951 15.062 79.1327 15.538C78.6839 16.0004 78.4595 16.6736 78.4595 17.5576V23.8H75.6035V12.4984H78.4595V13.8652C78.8267 13.3892 79.2959 13.0152 79.8671 12.7432C80.4519 12.4712 81.0911 12.3352 81.7847 12.3352C82.6687 12.3352 83.4575 12.5256 84.1511 12.9064C84.8447 13.2736 85.3819 13.804 85.7627 14.4976C86.1299 13.8448 86.6603 13.3212 87.3539 12.9268C88.0611 12.5324 88.8227 12.3352 89.6387 12.3352Z" fill="#5429CC"/>
<path d="M101.998 23.9836C100.91 23.9836 99.9309 23.7456 99.0605 23.2696C98.1901 22.78 97.5033 22.0932 97.0001 21.2092C96.5105 20.3252 96.2657 19.3052 96.2657 18.1492C96.2657 16.9932 96.5173 15.9732 97.0205 15.0892C97.5373 14.2052 98.2377 13.5252 99.1217 13.0492C100.006 12.5596 100.992 12.3148 102.08 12.3148C103.168 12.3148 104.154 12.5596 105.038 13.0492C105.922 13.5252 106.615 14.2052 107.118 15.0892C107.635 15.9732 107.894 16.9932 107.894 18.1492C107.894 19.3052 107.628 20.3252 107.098 21.2092C106.581 22.0932 105.874 22.78 104.976 23.2696C104.092 23.7456 103.1 23.9836 101.998 23.9836ZM101.998 21.4948C102.515 21.4948 102.998 21.3724 103.446 21.1276C103.909 20.8692 104.276 20.4884 104.548 19.9852C104.82 19.482 104.956 18.87 104.956 18.1492C104.956 17.0748 104.67 16.252 104.099 15.6808C103.542 15.096 102.855 14.8036 102.039 14.8036C101.223 14.8036 100.536 15.096 99.9785 15.6808C99.4345 16.252 99.1625 17.0748 99.1625 18.1492C99.1625 19.2236 99.4277 20.0532 99.9581 20.638C100.502 21.2092 101.182 21.4948 101.998 21.4948Z" fill="#5429CC"/>
<path d="M116.251 12.3352C117.598 12.3352 118.686 12.7636 119.515 13.6204C120.345 14.4636 120.76 15.6468 120.76 17.17V23.8H117.904V17.5576C117.904 16.66 117.679 15.9732 117.231 15.4972C116.782 15.0076 116.17 14.7628 115.395 14.7628C114.606 14.7628 113.98 15.0076 113.518 15.4972C113.069 15.9732 112.845 16.66 112.845 17.5576V23.8H109.989V12.4984H112.845V13.906C113.225 13.4164 113.708 13.0356 114.293 12.7636C114.891 12.478 115.544 12.3352 116.251 12.3352Z" fill="#5429CC"/>
<path d="M133.982 17.9044C133.982 18.3124 133.955 18.6796 133.9 19.006H125.638C125.706 19.822 125.992 20.4612 126.495 20.9236C126.998 21.386 127.617 21.6172 128.351 21.6172C129.412 21.6172 130.167 21.1616 130.616 20.2504H133.696C133.37 21.3384 132.744 22.236 131.819 22.9432C130.895 23.6368 129.759 23.9836 128.413 23.9836C127.325 23.9836 126.345 23.7456 125.475 23.2696C124.618 22.78 123.945 22.0932 123.455 21.2092C122.979 20.3252 122.741 19.3052 122.741 18.1492C122.741 16.9796 122.979 15.9528 123.455 15.0688C123.931 14.1848 124.598 13.5048 125.455 13.0288C126.311 12.5528 127.297 12.3148 128.413 12.3148C129.487 12.3148 130.446 12.546 131.289 13.0084C132.146 13.4708 132.805 14.1304 133.268 14.9872C133.744 15.8304 133.982 16.8028 133.982 17.9044ZM131.024 17.0884C131.01 16.354 130.745 15.7692 130.228 15.334C129.711 14.8852 129.079 14.6608 128.331 14.6608C127.624 14.6608 127.025 14.8784 126.536 15.3136C126.06 15.7352 125.767 16.3268 125.659 17.0884H131.024Z" fill="#5429CC"/>
<path d="M146.878 12.4984L139.881 29.1448H136.842L139.29 23.5144L134.761 12.4984H137.964L140.881 20.3932L143.839 12.4984H146.878Z" fill="#5429CC"/>
<path d="M29.0208 4.97917C25.81 1.7683 21.5408 3.05176e-05 17 3.05176e-05C12.4591 3.05176e-05 8.19001 1.7683 4.97914 4.97917C1.76826 8.19004 0 12.4592 0 17C0 21.5409 1.76833 25.8099 4.97914 29.0209C8.18995 32.2318 12.4591 34 17 34C21.5408 34 25.81 32.2318 29.0208 29.0209C32.2317 25.81 34 21.5409 34 17C34 12.4592 32.2317 8.19011 29.0208 4.97917Z" fill="#33CC95"/>
<g clip-path="url(#clip0_104512_708)">
<path d="M17.4858 6.80002V28.1714" stroke="white" stroke-width="2" stroke-linecap="round" stroke-linejoin="round"/>
<path d="M22.3429 10.6857H15.0572C14.1555 10.6857 13.2907 11.0439 12.6531 11.6816C12.0154 12.3192 11.6572 13.184 11.6572 14.0857C11.6572 14.9875 12.0154 15.8523 12.6531 16.4899C13.2907 17.1275 14.1555 17.4857 15.0572 17.4857H19.9144C20.8161 17.4857 21.6809 17.8439 22.3185 18.4816C22.9562 19.1192 23.3144 19.984 23.3144 20.8857C23.3144 21.7875 22.9562 22.6523 22.3185 23.2899C21.6809 23.9275 20.8161 24.2857 19.9144 24.2857H11.6572" stroke="white" stroke-width="2" stroke-linecap="round" stroke-linejoin="round"/>
</g>
<defs>
<clipPath id="clip0_104512_708">
<rect width="23.3143" height="23.3143" fill="white" transform="translate(5.82861 5.82858)"/>
</clipPath>
</defs>
</svg>
